<?xml version="1.0" encoding="utf-8"?>
<!-- Generator: Adobe Illustrator 22.1.0, SVG Export Plug-In . SVG Version: 6.00 Build 0)  -->
<svg version="1.1" id="Layer_1" xmlns="http://www.w3.org/2000/svg" xmlns:xlink="http://www.w3.org/1999/xlink" x="0px" y="0px"
	 viewBox="0 0 2416.6 1094.8" style="enable-background:new 0 0 2416.6 1094.8;" xml:space="preserve">
<style type="text/css">
	.st0{fill-rule:evenodd;clip-rule:evenodd;fill:#323E48;}
	.st1{fill:#323E48;}
</style>
<g>
	<path class="st0" d="M1933.8,872.5c-196.7,145.1-481.8,222.3-727.4,222.3c-344.1,0-654-127.2-888.5-338.9
		c-18.4-16.6-2-39.3,20.1-26.5c253,147.2,565.9,235.9,889,235.9c218,0,457.6-45.2,678.1-138.8
		C1938.5,812.4,1966.4,848.4,1933.8,872.5"/>
	<path class="st0" d="M2015.7,779.1c-25.2-32.2-166.3-15.2-229.7-7.7c-19.2,2.3-22.2-14.5-4.9-26.6
		c112.6-79.1,297.1-56.2,318.5-29.8c21.6,26.7-5.7,211.6-111.2,299.9c-16.2,13.5-31.6,6.3-24.5-11.6
		C1987.7,944,2040.9,811.3,2015.7,779.1"/>
</g>
<g>
	<path class="st1" d="M383.2,459.9c-3,9-9.2,13.5-18.6,13.5h-44.8c-5.1,0-9.2-1-12.1-2.9c-3-1.9-5.1-5.4-6.4-10.5L240.5,229
		l-60.8,230.9c-1.3,5.1-3.4,8.6-6.4,10.5c-3,1.9-7,2.9-12.1,2.9h-44.8c-9.8,0-16-4.5-18.6-13.5L3.2,169.5C1.1,163.1,0,158.9,0,156.7
		c0-6,4.1-8.9,12.1-8.9H64c8.9,0,14.5,4,16.6,12.1l60.8,236l62-235.4c1.3-5.1,3.3-8.6,6.1-10.3c2.8-1.7,6.7-2.5,11.8-2.5h42.2
		c4.7,0,8.5,0.9,11.5,2.5c3,1.7,5.1,5.1,6.4,10.3l62,239.8l64.6-240.5c2.1-8.1,7.7-12.1,16.6-12.1h46.7c8.1,0,12.1,3,12.1,8.9
		c0,2.1-1.1,6.4-3.2,12.8L383.2,459.9z"/>
	<path class="st1" d="M650.8,336.5c-13.2,0-25.5-0.7-36.8-2.3c-11.3-1.5-22.7-3.9-34.2-7.4c1.3,18.8,4.5,34.3,9.6,46.7
		c5.1,12.4,12,22.2,20.8,29.4c8.7,7.3,19.3,12.4,31.7,15.4c12.3,3,26.2,4.5,41.6,4.5c11.9,0,24.3-0.9,37.1-2.8
		c12.8-1.9,25.3-4.8,37.7-8.7c1.3-0.4,2.8-0.8,4.5-1.3c1.7-0.4,3.2-0.6,4.5-0.6c6.8,0,10.2,4.3,10.2,12.8v22.4
		c0,6.8-1.1,11.5-3.2,14.1c-2.1,2.6-6.4,5.1-12.8,7.7c-13.2,5.1-27.6,9.1-43.2,12.1c-15.5,3-30.8,4.5-45.7,4.5
		c-53.3,0-93.6-14.2-120.9-42.5c-27.3-28.4-40.9-69.8-40.9-124.4c0-57.1,13.7-101,41.2-131.8c27.5-30.7,66.4-46,116.7-46
		c20.5,0,38.3,2.7,53.4,8c15.1,5.4,27.8,12.7,38.1,22.1c10.3,9.4,17.9,20.4,23.1,32.9c5.1,12.6,7.7,26.1,7.7,40.6
		c0,21.3-4.8,38.3-14.4,50.8c-9.6,12.6-21.4,22.1-35.5,28.5c-14.1,6.4-29.3,10.5-45.7,12.5C678.8,335.5,664,336.5,650.8,336.5
		 M662.3,193.2c-20.5,0-38.1,6.6-52.8,19.8c-14.7,13.3-24.2,35-28.5,65.2c11.1,3,22.5,5,34.2,6.1c11.7,1.1,23.6,1.6,35.5,1.6
		c8.9,0,17.6-0.6,25.9-1.9c8.3-1.3,15.7-3.5,22.1-6.7c6.4-3.2,11.4-7.7,15-13.4c3.6-5.8,5.4-13.3,5.4-22.7c0-12.8-4.2-24-12.5-33.6
		C698.4,198,683.6,193.2,662.3,193.2"/>
	<path class="st1" d="M1074.5,442c-13.7,12.4-29,21.8-46.1,28.4c-17,6.6-35.2,9.9-54.4,9.9c-20.5,0-39-3.9-55.7-11.8
		c-16.6-7.9-30.8-19.2-42.5-33.9c-11.7-14.7-20.8-32.4-27.2-53.1c-6.4-20.7-9.6-44-9.6-70c0-26,3.3-49.8,9.9-71.3
		c6.6-21.5,15.9-39.7,27.8-54.7c11.9-14.9,26.5-26.5,43.5-34.8c17-8.3,36.3-12.5,57.6-12.5c34.1,0,65.2,11.1,93.4,33.3V14.1
		c0-9.4,4.7-14.1,14.1-14.1h47.3c9.4,0,14.1,4.7,14.1,14.1v445.2c0,9.4-4.7,14.1-14.1,14.1h-37.1c-9.4,0-14.9-4.2-16.6-12.8
		L1074.5,442z M997.7,420.9c25.1,0,49.7-8.1,73.6-24.3V220.7c-11.9-8.5-24-14.5-36.1-17.9c-12.1-3.4-24.2-5.1-36.1-5.1
		c-28.6,0-49.6,9.1-63,27.2c-13.5,18.1-20.2,45.9-20.2,83.5C915.9,383.4,943.1,420.9,997.7,420.9"/>
	<path class="st1" d="M1444.8,442c-13.7,12.4-29,21.8-46.1,28.4c-17,6.6-35.2,9.9-54.4,9.9c-20.5,0-39-3.9-55.7-11.8
		c-16.6-7.9-30.8-19.2-42.5-33.9c-11.7-14.7-20.8-32.4-27.2-53.1c-6.4-20.7-9.6-44-9.6-70c0-26,3.3-49.8,9.9-71.3
		c6.6-21.5,15.9-39.7,27.8-54.7c11.9-14.9,26.5-26.5,43.5-34.8c17-8.3,36.3-12.5,57.6-12.5c34.1,0,65.2,11.1,93.4,33.3V14.1
		c0-9.4,4.7-14.1,14.1-14.1h47.3c9.4,0,14.1,4.7,14.1,14.1v445.2c0,9.4-4.7,14.1-14.1,14.1h-37.1c-9.4,0-14.9-4.2-16.6-12.8
		L1444.8,442z M1368.1,420.9c25.1,0,49.7-8.1,73.6-24.3V220.7c-11.9-8.5-24-14.5-36.1-17.9c-12.1-3.4-24.2-5.1-36.1-5.1
		c-28.6,0-49.6,9.1-63,27.2c-13.5,18.1-20.2,45.9-20.2,83.5C1286.2,383.4,1313.5,420.9,1368.1,420.9"/>
	<path class="st1" d="M1638.7,94c-14.1,0-25.2-3.8-33.3-11.5c-8.1-7.7-12.1-18.3-12.1-32s4-24.3,12.1-32
		c8.1-7.7,19.2-11.5,33.3-11.5c14.1,0,25.2,3.8,33.3,11.5c8.1,7.7,12.1,18.3,12.1,32s-4,24.3-12.1,32
		C1663.9,90.2,1652.8,94,1638.7,94 M1676.4,459.3c0,9.4-4.7,14.1-14.1,14.1H1615c-9.4,0-14.1-4.7-14.1-14.1V161.8
		c0-9.3,4.7-14.1,14.1-14.1h47.3c9.4,0,14.1,4.7,14.1,14.1V459.3z"/>
	<path class="st1" d="M1831,183.6c20-14.9,40.6-26.2,61.7-33.9c21.1-7.7,42.3-11.5,63.6-11.5c31.6,0,55.4,8.2,71.3,24.6
		c16,16.4,24,40.2,24,71.3v225.1c0,9.4-4.7,14.1-14.1,14.1h-47.3c-9.4,0-14.1-4.7-14.1-14.1V257.8c0-21.3-4.3-36.7-12.8-46.1
		c-8.6-9.3-22.2-14.1-41-14.1c-14.1,0-28.4,2.5-43.2,7.4c-14.7,4.9-29.1,11.8-43.2,20.8v233.4c0,9.4-4.7,14.1-14.1,14.1h-47.3
		c-9.4,0-14.1-4.7-14.1-14.1V161.8c0-9.4,4.7-14.1,14.1-14.1h33.9c5.6,0,9.6,0.7,12.2,2.2c2.6,1.5,4.2,4.8,5.1,9.9L1831,183.6z"/>
	<path class="st1" d="M2160,594.2c-6.8-2.6-11.2-5.2-13.1-8c-1.9-2.8-2.9-7.2-2.9-13.1v-26.2c0-7.7,3.4-11.5,10.2-11.5
		c2.1,0,5.3,0.8,9.6,2.3c4.3,1.5,10.7,3.3,19.2,5.4c9.4,2.6,19.5,4.8,30.4,6.7c10.9,1.9,23.3,2.9,37.4,2.9c32,0,55.2-7.4,69.7-22.1
		c14.5-14.7,21.8-38.7,21.8-72v-27.5c-13.7,11.5-28.3,20.4-43.8,26.5c-15.6,6.2-32.3,9.3-50.2,9.3c-19.6,0-37.4-3.8-53.4-11.5
		c-16-7.7-29.8-18.6-41.3-32.6c-11.5-14.1-20.4-31.1-26.5-51.2c-6.2-20-9.3-42.6-9.3-67.8c0-24.7,3.1-47.3,9.3-67.8
		c6.2-20.5,15-37.9,26.5-52.4c11.5-14.5,25.5-25.7,41.9-33.6c16.4-7.9,34.9-11.8,55.3-11.8c37.1,0,69.3,13,96.6,39l3.8-16.6
		c1.7-8.6,7.3-12.8,16.6-12.8h34.5c9.4,0,14.1,4.7,14.1,14.1V451c0,51.6-13.9,91.4-41.6,119.6c-27.7,28.1-67.6,42.2-119.6,42.2
		c-14.1,0-29-1.3-44.8-3.8C2194.8,606.4,2178,601.5,2160,594.2 M2270.7,408.7c25.1,0,49-8.3,71.7-24.9V220.1
		c-11.5-8.1-23.3-14-35.2-17.6c-11.9-3.6-23.9-5.4-35.8-5.4c-26.5,0-45.9,8.5-58.2,25.6c-12.3,17.1-18.6,43.3-18.6,78.7
		C2194.6,372.9,2219.9,408.7,2270.7,408.7"/>
</g>
</svg>
