<svg xmlns="http://www.w3.org/2000/svg" viewBox="0 0 32 32" width="48" class="h-margin-l-tight">
    <path fill="#C00" d="M28.67 9.33v4.34h-1.34V30H4.67V13.67H3.33V9.33h25.34Z"></path>
    <path fill="#333" fill-opacity=".25" d="M27.33 13.67v1.66H4.67v-1.66h22.66Z"></path>
    <path fill="#840000"
        d="M17.89 3.35a4.03 4.03 0 0 1 3.65-1.3 3.34 3.34 0 0 1 2.57 2.08 3.93 3.93 0 0 1-.22 3.42 3.43 3.43 0 0 1-2.5 1.72c-.43.06-.86.06-1.24.06h-.69l-2.65-.01h-1.62l-2.65.01h-.69c-.38 0-.81 0-1.25-.06a3.43 3.43 0 0 1-2.49-1.72 3.93 3.93 0 0 1-.22-3.42 3.34 3.34 0 0 1 2.57-2.07 4.03 4.03 0 0 1 3.65 1.29A36.65 36.65 0 0 1 16 5.68a36.62 36.62 0 0 1 1.89-2.33Zm3.27.92a1.8 1.8 0 0 0-1.6.58 34.1 34.1 0 0 0-1.81 2.23h2.4c.35.01.66 0 .94-.03.34-.05.65-.28.85-.62.25-.44.28-.98.1-1.45a1.1 1.1 0 0 0-.88-.71Zm-8.72.58a1.8 1.8 0 0 0-1.6-.58 1.1 1.1 0 0 0-.87.7 1.66 1.66 0 0 0 .09 1.46c.12.2.38.55.85.62.28.03.6.03.93.03h2.41a34.95 34.95 0 0 0-1.81-2.23Z"></path>
    <path fill="#fff"
        d="M16 17.67a4.67 4.67 0 0 1 4.67 4.66A4.67 4.67 0 0 1 16 27a4.67 4.67 0 0 1-4.67-4.67A4.67 4.67 0 0 1 16 17.67Zm0 1.55h-.18a3.11 3.11 0 0 0 .18 6.22h.18a3.11 3.11 0 0 0-.18-6.22Zm0 1.56a1.55 1.55 0 1 1 0 3.1 1.55 1.55 0 0 1 0-3.1Z"></path>
</svg>